<?xml version="1.0" standalone="no"?>
<!DOCTYPE svg PUBLIC "-//W3C//DTD SVG 20010904//EN"
 "http://www.w3.org/TR/2001/REC-SVG-20010904/DTD/svg10.dtd">
<svg version="1.0" xmlns="http://www.w3.org/2000/svg"
 width="350.000000pt" height="507.000000pt" viewBox="0 0 350.000000 507.000000"
 preserveAspectRatio="xMidYMid meet">

<g transform="translate(0.000000,507.000000) scale(0.100000,-0.100000)"
fill="#000000" stroke="none">
<path d="M1561 4294 c-12 -15 -21 -32 -21 -39 0 -6 -9 -20 -20 -30 -33 -30
-77 -205 -51 -205 6 0 11 -9 11 -20 0 -27 25 -76 43 -83 10 -4 12 2 9 22 -2
17 3 32 13 41 15 12 16 11 10 -12 -4 -15 -2 -29 4 -32 7 -5 11 2 11 15 0 18 2
19 15 9 21 -18 19 -35 -7 -53 l-23 -16 24 0 c22 -1 23 -4 17 -41 -6 -37 -3
-44 35 -85 23 -25 60 -51 85 -61 44 -17 53 -27 34 -39 -16 -10 -155 72 -190
111 -35 40 -43 38 -74 -20 l-19 -36 24 -26 c20 -21 21 -27 9 -35 -11 -8 -12
-12 -2 -16 6 -2 10 -9 6 -14 -3 -5 2 -9 11 -9 9 0 24 -13 33 -30 9 -16 20 -30
25 -30 4 0 7 -12 7 -26 0 -14 -4 -23 -9 -19 -5 3 -12 1 -16 -5 -9 -15 -37 -12
-75 7 -24 12 -35 13 -38 5 -2 -7 -11 -12 -21 -12 -9 0 -22 -5 -29 -12 -8 -8
-12 -9 -12 -1 0 6 14 17 30 25 34 15 34 29 -1 39 -46 13 -94 9 -126 -11 -33
-20 -43 -40 -21 -40 6 0 20 -7 30 -17 10 -9 33 -17 51 -17 40 -2 57 -12 57
-35 0 -10 9 -26 20 -36 13 -12 21 -37 26 -76 4 -33 11 -59 15 -59 9 0 13 45 9
85 -3 33 13 7 31 -48 l17 -52 1 39 c2 63 26 27 40 -59 7 -41 17 -75 23 -75 6
0 8 13 4 33 -15 86 -17 122 -6 104 6 -9 9 -21 5 -26 -3 -5 -1 -12 5 -16 5 -3
10 -14 10 -23 1 -9 9 -35 20 -57 l19 -40 -4 90 c-4 88 -4 89 9 45 29 -99 51
-160 59 -160 4 0 7 6 6 13 -1 6 -1 31 0 55 1 47 25 59 41 20 8 -22 9 -21 11 7
1 18 3 23 6 13 5 -19 23 -25 23 -8 0 6 7 10 15 10 12 0 15 16 15 86 0 61 3 85
12 82 7 -3 12 -42 14 -119 1 -62 7 -127 14 -143 13 -35 6 -73 -26 -140 -13
-28 -24 -57 -24 -65 0 -13 -2 -14 -9 -2 -10 16 -15 3 -26 -66 -4 -23 -15 -53
-24 -65 -27 -34 -51 -85 -44 -91 3 -4 22 2 42 12 42 21 128 35 136 21 3 -5 1
-11 -3 -14 -5 -3 -8 -32 -6 -66 1 -33 -2 -62 -7 -65 -4 -3 -30 -7 -56 -9 -26
-2 -52 -4 -58 -6 -35 -9 -45 1 -45 43 0 51 -24 77 -74 77 -21 0 -40 8 -52 21
-11 12 -26 18 -37 15 -11 -2 -30 -1 -43 4 -28 11 -98 -14 -91 -33 2 -7 18 -13
35 -15 18 -2 32 -7 32 -13 0 -20 -40 -47 -81 -54 -24 -3 -58 -11 -76 -16 -21
-7 -58 -7 -113 1 -80 11 -125 7 -115 -10 3 -5 -7 -5 -23 1 -16 6 -56 9 -88 7
-54 -3 -60 -6 -81 -37 -19 -27 -22 -46 -22 -110 1 -42 -4 -89 -10 -104 -16
-40 -13 -118 4 -141 8 -11 15 -36 15 -55 2 -82 51 -129 137 -130 69 -2 114
-49 145 -150 18 -61 34 -62 59 -6 l21 48 54 -6 c29 -3 63 -12 75 -21 19 -13
25 -13 50 0 41 21 58 17 70 -13 l10 -28 19 25 c11 14 20 33 20 43 0 11 8 17
25 17 16 0 25 -6 25 -16 0 -13 3 -14 13 -5 8 6 17 7 21 3 11 -10 36 28 36 55
0 14 6 23 15 23 8 0 19 9 25 20 7 13 16 18 23 13 7 -4 21 -8 32 -8 17 0 19 -6
17 -32 -2 -19 1 -33 7 -33 6 0 11 6 11 14 0 8 7 16 15 20 10 4 15 -1 15 -14 0
-11 5 -20 11 -20 6 0 8 7 5 15 -3 9 1 18 9 21 9 4 15 19 15 39 0 19 4 37 10
40 6 4 9 -23 9 -70 -1 -57 3 -81 15 -94 9 -10 16 -23 16 -30 0 -7 8 -11 18 -9
11 2 18 14 20 36 3 32 16 42 25 20 3 -7 6 5 7 27 5 111 41 329 59 364 6 11 23
22 39 24 17 3 13 4 -10 3 -35 -1 -38 1 -38 26 0 30 9 35 27 17 17 -17 50 -1
61 29 18 47 23 94 11 108 -9 11 -8 18 1 29 7 9 10 18 6 22 -3 3 -6 2 -6 -4 0
-6 -13 -13 -29 -15 -26 -4 -30 -1 -35 25 -3 16 -6 43 -6 59 0 25 2 28 14 19
11 -10 15 -8 20 6 9 30 10 108 2 121 -4 7 -4 17 0 23 4 8 0 9 -15 4 -17 -5
-21 -2 -21 18 0 14 7 28 16 31 9 3 14 13 11 20 -3 8 0 19 7 25 10 9 9 32 -5
123 -10 62 -21 143 -25 181 -6 63 -16 82 -28 55 -3 -7 -3 7 0 32 4 35 3 42 -6
30 -9 -12 -10 -11 -5 8 4 14 0 32 -9 47 -9 14 -21 48 -27 77 -13 62 -25 83
-92 161 -45 51 -49 59 -34 70 9 6 23 29 32 50 15 36 15 40 -4 71 -17 27 -21
54 -24 150 l-3 117 25 5 c14 3 37 10 51 16 l25 10 -30 12 c-46 20 -56 38 -58
113 l-2 68 -110 2 c-60 0 -123 6 -138 12 -42 16 -53 14 -76 -15z m264 -104 c3
-5 1 -10 -4 -10 -6 0 -11 5 -11 10 0 6 2 10 4 10 3 0 8 -4 11 -10z m-138 -128
c7 -4 14 -18 16 -31 2 -12 9 -26 16 -31 9 -5 10 -10 2 -14 -6 -4 -11 -17 -11
-28 0 -23 -26 -47 -50 -48 -18 0 -40 69 -40 125 0 32 3 35 28 35 15 0 33 -4
39 -8z m164 -115 c-14 -14 -51 2 -51 23 0 10 6 21 13 23 16 7 51 -33 38 -46z
m-486 -418 c9 -13 6 -15 -25 -23 -14 -3 -19 -3 -12 0 6 3 12 12 12 20 0 16 16
19 25 3z m329 -14 c-10 -8 -23 -14 -29 -14 -5 0 -1 6 9 14 11 8 24 15 30 15 5
0 1 -7 -10 -15z m54 -79 c-2 -11 -8 -21 -14 -23 -16 -5 -25 24 -18 54 7 25 8
25 21 7 8 -10 12 -28 11 -38z m122 14 c0 -5 -5 -10 -11 -10 -5 0 -7 5 -4 10 3
6 8 10 11 10 2 0 4 -4 4 -10z m40 -75 c0 -14 -4 -25 -10 -25 -11 0 -14 33 -3
43 11 11 13 8 13 -18z m60 -160 c0 -8 -11 -25 -25 -37 -14 -12 -25 -31 -25
-42 0 -14 -3 -17 -11 -9 -12 12 4 53 21 53 6 0 10 9 10 19 0 16 7 24 28 30 1
1 2 -6 2 -14z m80 -31 c0 -8 -5 -12 -10 -9 -6 4 -8 11 -5 16 9 14 15 11 15 -7z
m-130 -494 c-19 -13 -30 -13 -30 0 0 6 10 10 23 10 18 0 19 -2 7 -10z m-183
-332 c-3 -8 -6 -5 -6 6 -1 11 2 17 5 13 3 -3 4 -12 1 -19z m147 -97 c5 -16 9
-118 7 -158 -1 -14 -6 -21 -15 -17 -8 3 -11 15 -8 30 3 19 0 24 -17 24 -11 0
-21 -4 -21 -10 0 -5 -5 -10 -11 -10 -7 0 -8 22 -4 68 8 75 12 106 14 109 4 8
51 -23 55 -36z m-101 -52 c-8 -29 -13 -23 -13 14 0 22 3 28 9 18 5 -7 6 -22 4
-32z m-10 -77 c-3 -12 -9 -22 -14 -22 -12 0 -11 7 2 32 13 25 20 19 12 -10z
m43 -129 c-11 -11 -17 4 -9 23 7 18 8 18 11 1 2 -10 1 -21 -2 -24z"/>
<path d="M1346 3391 c-13 -21 -19 -101 -7 -101 11 0 12 4 16 73 2 38 0 44 -9
28z"/>
<path d="M1392 3369 c-50 -134 -60 -198 -34 -207 14 -4 16 -58 3 -98 -5 -16
-12 -41 -15 -56 -7 -31 -23 -36 -40 -13 -16 22 -52 8 -67 -26 -6 -16 -25 -46
-40 -66 -35 -43 -35 -50 -5 -87 l23 -30 31 23 32 22 0 -34 c0 -59 52 -77 66
-23 8 35 29 39 80 17 l44 -20 -6 82 c-3 49 -12 92 -22 107 -16 25 -25 183 -11
205 8 12 -13 211 -23 221 -4 3 -11 -4 -16 -17z m-141 -432 c-6 -8 -8 -17 -4
-20 3 -4 1 -7 -5 -7 -14 0 -14 2 -6 24 3 9 11 16 16 16 7 0 6 -5 -1 -13z m59
-82 c-7 -9 -15 -13 -19 -10 -3 3 1 10 9 15 21 14 24 12 10 -5z"/>
<path d="M1101 3289 c0 -20 -4 -52 -8 -70 -6 -31 -5 -33 10 -20 9 7 17 22 17
32 0 11 4 19 9 19 5 0 14 14 20 30 9 28 9 29 -9 20 -25 -13 -28 -13 -33 8 -3
9 -5 1 -6 -19z"/>
<path d="M1786 3148 c-11 -56 -11 -71 -1 -74 6 -2 11 20 13 51 3 61 -2 72 -12
23z"/>
<path d="M1523 2991 c3 -39 13 -82 21 -98 l15 -28 1 41 c0 56 -21 154 -33 154
-6 0 -8 -26 -4 -69z"/>
<path d="M1040 2864 c-1 -16 -7 -40 -15 -54 -8 -14 -14 -34 -15 -44 0 -18 2
-17 26 5 14 13 31 35 38 49 11 22 9 28 -11 49 l-23 24 0 -29z"/>
<path d="M1551 2843 c0 -5 4 -17 9 -28 8 -18 9 -17 9 8 1 15 -3 27 -9 27 -5 0
-10 -3 -9 -7z"/>
<path d="M1084 2775 c-3 -8 -14 -17 -24 -20 -10 -3 -26 -17 -35 -31 -16 -24
-15 -27 1 -45 10 -11 25 -19 33 -18 9 1 29 -3 44 -9 16 -7 34 -12 42 -12 18 0
28 17 13 22 -10 4 -10 13 -1 42 10 31 9 35 -2 26 -28 -24 -79 19 -60 50 3 5 4
10 0 10 -3 0 -8 -7 -11 -15z"/>
<path d="M2071 2218 c-5 -13 -5 -32 -1 -43 4 -11 8 -65 9 -120 3 -166 31 -252
31 -95 0 78 3 98 22 129 17 27 18 33 5 22 -16 -12 -17 -9 -17 38 0 78 -30 120
-49 69z"/>
<path d="M1799 1772 c-54 -35 -91 -43 -133 -30 -71 22 -163 27 -274 15 l-113
-11 1 -71 c1 -45 -6 -93 -18 -135 -54 -175 -62 -215 -73 -340 -29 -349 -22
-511 22 -525 11 -4 19 -11 19 -16 0 -5 5 -8 12 -6 6 1 14 -9 18 -23 6 -23 10
-25 64 -24 32 1 61 7 65 13 5 8 13 5 25 -8 18 -20 44 -18 58 3 5 8 8 7 8 -1 0
-6 9 -9 21 -6 19 5 20 4 9 -17 -12 -22 -11 -22 16 -16 l29 6 -25 -21 c-19 -16
-32 -19 -59 -14 -31 6 -33 5 -22 -9 19 -23 96 -19 227 9 48 10 33 75 -17 75
-43 0 -108 37 -127 72 -9 17 -27 43 -39 58 -22 26 -23 35 -19 156 3 71 7 136
10 144 3 8 15 83 26 165 27 187 47 280 66 296 12 10 14 5 15 -27 3 -275 10
-385 30 -462 11 -46 18 -95 14 -109 -10 -43 21 -129 59 -158 44 -34 128 -36
162 -4 l23 21 58 -19 c70 -23 85 -22 179 8 82 27 89 39 54 89 -18 26 -23 27
-57 19 -65 -15 -96 -10 -143 22 -59 40 -72 84 -77 259 -3 101 1 168 16 265 11
72 22 183 25 248 l6 117 -26 10 c-41 16 -67 12 -115 -18z m-359 -90 c0 -10 5
-23 12 -30 6 -6 8 -15 3 -19 -4 -5 -10 -2 -12 5 -4 10 -9 8 -22 -5 -9 -10 -27
-24 -40 -31 -21 -13 -23 -12 -17 3 3 9 6 34 6 56 0 38 1 39 35 39 27 0 35 -4
35 -18z m-130 -174 c-26 -93 -34 -108 -52 -90 -10 10 -9 19 4 45 10 17 20 46
24 62 8 35 33 79 41 71 3 -3 -4 -43 -17 -88z m58 -42 c2 -30 0 -34 -17 -29
-19 5 -19 7 -5 34 8 16 16 29 17 29 2 0 4 -15 5 -34z m45 -51 c4 -8 2 -17 -3
-20 -6 -4 -10 -4 -10 -1 0 2 -3 11 -6 20 -3 9 -2 16 4 16 5 0 12 -7 15 -15z
m-152 -82 c-10 -17 -10 -17 -11 2 0 11 4 31 8 45 l7 25 3 -27 c2 -15 -1 -35
-7 -45z m72 -1 c15 -19 0 -27 -18 -8 -11 11 -14 23 -9 38 7 22 8 22 12 3 2
-11 9 -26 15 -33z m11 -91 c-1 -26 -28 -51 -41 -37 -4 4 0 12 10 17 21 12 23
39 2 39 -10 0 -15 10 -15 27 l0 26 23 -24 c12 -13 22 -35 21 -48z"/>
<path d="M1776 632 c-3 -6 -1 -14 5 -17 15 -10 25 3 12 16 -7 7 -13 7 -17 1z"/>
<path d="M1730 610 c0 -5 5 -10 10 -10 6 0 10 5 10 10 0 6 -4 10 -10 10 -5 0
-10 -4 -10 -10z"/>
<path d="M1410 570 c0 -5 5 -10 11 -10 5 0 7 5 4 10 -3 6 -8 10 -11 10 -2 0
-4 -4 -4 -10z"/>
</g>
</svg>
